# xmcd
#
# Track frame offsets:
#	150
#	13148
#	26598
#	39780
#	52814
#	68288
#	83163
#	99182
#	111486
#	122770
#	137344
#	152041
#	167344
#	181705
#
# Disc length: 2596 seconds
#
# Revision: 0
# Processed by: cddbd v1.5.2PL0 Copyright (c) Steve Scherf et al.
# Submitted via: EasyCDDAExtractor 16.0.8.2
#
DISCID=970a220e
DTITLE=Ζαγοραίος Σπύρος - Οι μεγάλες επιτυχίες-Σ. Ζαγοραίος 2
DYEAR=2015
DGENRE=Ποικίλη
TTITLE0=Ζαγοραίος Σπύρος-Περπινιάδης Βαγγέλης - Χατζηκυριάκειο [Δημ. Γκόγκος Μ
TTITLE0=παγιαντέρας]
TTITLE1=Ζαγοραίος Σπύρος - Η αγάπη χρόνια δεν κοιτά [Σ. Ζαγοραίος-Κ. Βίρβος]
TTITLE2=Ζαγοραίος Σπύρος - Καροτσέρη τράβα [Απ. Χατζηχρήστος]
TTITLE3=Ζαγοραίος Σπύρος - Κατηγόρα με [Δημ. Γκούτης]
TTITLE4=Ζαγοραίος Σπύρος - Θα πεθάνω γλυκειά μου αγάπη [Δημ. Γκούτης]
TTITLE5=Ζαγοραίος Σπύρος - Το μαύρο μου μπεγλέρι [Σ. Ζαγοραίος-Δημ. Γκούτης]
TTITLE6=Ζαγοραίος Σπύρος - Στης Σύρας τον ανήφορο [Αργ. Βαμβακάρης-Σ. Ζαγοραίο
TTITLE6=ς]
TTITLE7=Ζαγοραίος Σπύρος - Μόνο τα βουνά δεν σμίγουν [Μ. Μπακάλης-Κ. Βίρβος]
TTITLE8=Ζαγοραίος Σπύρος - Πέφτει σιγανή βροχούλα [Γερ. Κλουβάτος]
TTITLE9=Ζαγοραίος Σπύρος - Να πέσουν χίλιοι κεραυνοί [Ν. Δαλέζιος-Μ. Μπακάλης]
TTITLE10=Ζαγοραίος Σπύρος - Ο Μπενούκας [Γ. Μητσάκης]
TTITLE11=Ζαγοραίος Σπύρος - Φούντα και μπεγλέρι [Δημ. Γκούτης]
TTITLE12=Ζαγοραίος Σπύρος - Βάρδα κόσμε να περάσω [Γ. Μανισαλής-Κ. Βίρβος]
TTITLE13=Ζαγοραίος Σπύρος - Ένας μπαγλαμάς μουρμούρης [Θ. Δερβενιώτης-Κ. Βίρβο
TTITLE13=ς]
EXTD=
EXTT0=
EXTT1=
EXTT2=
EXTT3=
EXTT4=
EXTT5=
EXTT6=
EXTT7=
EXTT8=
EXTT9=
EXTT10=
EXTT11=
EXTT12=
EXTT13=
PLAYORDER=
